<?xml version="1.0" encoding="utf-8"?>
<!-- Generator: Adobe Illustrator 26.2.1, SVG Export Plug-In . SVG Version: 6.00 Build 0)  -->
<svg version="1.1" id="Layer_1" xmlns="http://www.w3.org/2000/svg" xmlns:xlink="http://www.w3.org/1999/xlink" x="0px" y="0px"
	 viewBox="0 0 450.1 488.2" style="enable-background:new 0 0 450.1 488.2;" xml:space="preserve">
<style type="text/css">
	.st0{fill:#F2F0EE;}
	.st1{fill-rule:evenodd;clip-rule:evenodd;fill:#FC7853;}
</style>
<rect class="st0" width="450.1" height="488.2"/>
<g transform="rotate(0 300.1302373991179 236.15409611715404)">
	<path id="Layer_x0020_1" class="st1" d="M200.4,336.5c29.8-0.4,51.8-7.9,65.6-22.4c-9.2-5.4-18.5-10.6-27.7-16l3.2,2.7
		c2.4,1.9,3.1,5.4,1.5,8.1l-9.8,17c-5.4,1.2-11.1,2-17.3,2.6l18.7-32.3l-9.6-5.5l-27.3,15.8l-27.3,15.8v31.6v31.6l27.3,15.8
		l27.3,15.8l27.3-15.8l27.3-15.8v-31.6v-4.2c-20.1,5.1-46.5,9.6-65,8.3l-12,20.7l-11.9-6.8l9.6-16.6l0.3,0.1l0,0l0,0l0,0h0.1l0,0
		l0,0l0,0l0,0l0,0l0,0l0,0l0,0l0,0l0,0l0,0l0,0l0,0l0,0l0,0l0,0l0,0l0,0l0,0l0,0l0,0l0,0l0,0l0,0l0,0l0,0l0,0l0,0l0,0l0,0l0,0l0,0
		l0,0l0,0l0,0l0,0l0,0l0,0l0,0l0,0l0,0l0,0l0,0l0,0l0,0l0,0l0,0l0,0l0,0l0,0l0,0l0,0l0,0l0,0l0,0l0,0l0,0l0,0l0,0l0,0l0,0l0,0l0,0
		l0,0l0,0l0,0l0,0l0,0l0,0l0,0l0,0l0,0l0,0l0,0l0,0l0,0l0,0l0,0l0,0l0,0h-0.1l0,0l0,0l0,0c-5.5-2.2-8.8-5.6-8.6-10.9
		C192.5,340,196.1,336.5,200.4,336.5L200.4,336.5z M157.5,283.6c-12.4,16.2-25,44.7-26.5,71.9l19.2,18l-19.3-11.1l-15-8.7
		l-40.6-23.4V244v-86.5l74.9-43.2l74.9-43.2l74.9,43.2l74.9,43.2v86.4v86.4L337.1,352l-14.1,8.1l-19.3,11.1l18.9-17.9
		c-2.3-40.3-9.8-84.8-32.7-113.7l-36.9,51.8l32.8-56.9l6.1-10.6l8.3-14.3l7.8,4.5l4.2-7.3c32.2,18,50.7,30.4,55.3,37.3
		c-6.8-18.1-22.6-35.3-47.3-51.2l4.1-7.2l-25.4-14.7l-4.2,7.2c-4.6-2.3-9.3-4.6-14.4-6.9l-8.6,13.8l14.6,7.7l-3.8,6.6l5.8,3.3
		l-11.9,20.6c-7-7.4-14.8-13.8-23.1-19c-3.7,2.2-10.9,7.7-15,9.1c20.8-21.2,27.3-45.2,18.7-74.9c-24.7,4.6-43.7,24.3-47.7,49.1
		c-33.9-3.6-81,6-98.3,39.2c-1.7,3.1-2.3,6.5-1.7,10.4c2.6,16.1,50.5,43.2,69.6,48.4C173.2,286.7,163.3,285.5,157.5,283.6
		L157.5,283.6z M346.5,125.4 M177.9,216.5c0-6.9,5.6-12.7,12.7-12.7c6.9,0,12.7,5.6,12.7,12.7c0,6.9-5.6,12.7-12.7,12.7
		C183.7,229,177.9,223.4,177.9,216.5z M211.7,357.6L211.7,357.6L211.7,357.6h-0.1l0,0l0,0l0,0l0,0l0,0l0,0l0,0l0,0l0,0l0,0l0,0l0,0
		l0,0l0,0l0,0l0,0l0,0l0,0l0,0l0,0h-0.1l0,0l0,0l0,0l0,0l0,0h-0.1l0,0c-0.5,0-0.9-0.1-1.4-0.1l0,0l0,0l0,0l0,0l0,0l0,0l0,0l0,0l0,0
		l0,0l0,0l0,0l0,0l0,0l0,0l0,0l0,0l0,0l0,0l0,0l0,0l0,0l0,0l0,0l0,0l0,0c0.4,0,0.9,0.1,1.4,0.1l0,0h0.1l0,0l0,0l0,0l0,0l0,0h0.1l0,0
		l0,0l0,0l0,0l0,0l0,0l0,0l0,0l0,0l0,0l0,0l0,0l0,0l0,0l0,0l0,0l0,0l0,0l0,0l0,0H211.7L211.7,357.6L211.7,357.6z M209,357.2
		L209,357.2L209,357.2L209,357.2L209,357.2L209,357.2L209,357.2L209,357.2L209,357.2L209,357.2h-0.1l0,0l0,0l0,0l0,0l0,0l0,0l0,0
		l0,0l0,0l0,0l0,0l0,0l0,0l0,0l0,0h-0.1l0,0l0,0l0,0l-0.4-0.1l0,0l0,0l0,0h-0.1l0,0l0,0l0,0l0,0l0,0l0,0l0,0l0,0l0,0l0,0l0,0l0,0
		l0,0l0,0l0,0l0,0l0,0l0,0l0,0l0,0l0,0l0,0l0,0l0,0l0,0l0,0l0,0l0,0l0,0l0,0l0,0l0,0l0,0l0,0l0,0l0,0l0,0l0,0l0,0l0,0l0,0l0,0l0,0
		l0,0l0,0l0,0l0,0l0,0h0.1l0,0l0,0l0,0l0.4,0.1l0,0l0,0l0,0h0.1l0,0l0,0l0,0l0,0l0,0l0,0l0,0l0,0l0,0l0,0l0,0l0,0l0,0l0,0l0,0H209
		L209,357.2L209,357.2L209,357.2L209,357.2L209,357.2L209,357.2L209,357.2L209,357.2L209,357.2z M207.7,357L207.7,357L207.7,357
		L207.7,357h-0.1l0,0l0,0l0,0l0,0l0,0l0,0l0,0l0,0l0,0l0,0l0,0l0,0l0,0l0,0l0,0l0,0l0,0l0,0l0,0l0,0l0,0l0,0l0,0l0,0l0,0l0,0l0,0
		l0,0l0,0l0,0l0,0l0,0l0,0l0,0l0,0l0,0l0,0l0,0l0,0l0,0l0,0l0,0l0,0l0,0l0,0l0,0l0,0l0,0l0,0l0,0l0,0l0,0l0,0l0,0l0,0l0,0l0,0l0,0
		l0,0l0,0l0,0l0,0l0,0l0,0l0,0l0,0l0,0l0,0l0,0l0,0l0,0l0,0l0,0l0,0l0,0l0,0l0,0l0,0l0,0l0,0l0,0l0,0l0,0l0,0l0,0l0,0l0,0l0,0l0,0
		l0,0l0,0l0,0l0,0l0,0l0,0l0,0l0,0l0,0l0,0l0,0l0,0l0,0l0,0l0,0l0,0l0,0l0,0l0,0l0,0l0,0l0,0l0,0l0,0l0,0l0,0l0,0l0,0l0,0l0,0l0,0
		l0,0l0,0l0,0l0,0l0,0l0,0l0,0l0,0l0,0l0,0l0,0l0,0l0,0l0,0l0,0l0,0l0,0l0,0l0,0l0,0l0,0l0,0l0,0l0,0l0,0l0,0l0,0l0,0l0,0l0,0l0,0
		l0,0l0,0l0,0l0,0l0,0l0,0l0,0l0,0l0,0l0,0l0,0l0,0l0,0l0,0l0,0l0,0l0,0l0,0l0,0l0,0l0,0l0,0l0,0l0,0l0,0l0,0l0,0l0,0l0,0H207.7
		L207.7,357L207.7,357L207.7,357z M205,356.4L205,356.4L205,356.4L205,356.4L205,356.4L205,356.4L205,356.4L205,356.4L205,356.4
		L205,356.4h-0.1l0,0l0,0l0,0l0,0l0,0l0,0l0,0l0,0l0,0l0,0l0,0l0,0h-0.1l0,0l0,0l0,0h-0.1l0,0l-0.3-0.1l0,0l0,0l0,0l0,0l0,0l0,0l0,0
		l0,0l0,0l0,0l0,0l0,0l0,0l0,0l0,0l0,0l0,0l0,0l0,0l0,0l0,0l0,0l0,0l0,0l0,0l0,0l0,0l0,0l0,0l0,0l0,0l0,0l0,0l0,0l0,0l0,0l0,0l0,0
		l0,0l0,0l0,0l0,0l0,0l0,0l0,0l0,0l0,0l0,0l0,0l0,0l0,0l0,0l0,0l0,0l0,0l0,0l0,0l0,0l0,0l0,0l0,0l0,0l0.3,0.1l0,0h0.1l0,0l0,0l0,0
		h0.1l0,0l0,0l0,0l0,0l0,0l0,0l0,0l0,0l0,0l0,0l0,0l0,0H205L205,356.4L205,356.4L205,356.4L205,356.4L205,356.4L205,356.4L205,356.4
		L205,356.4L205,356.4z M203.9,356.2L203.9,356.2L203.9,356.2L203.9,356.2L203.9,356.2h-0.1l0,0l0,0l0,0l0,0l0,0l0,0l0,0l0,0l0,0
		l0,0l0,0l0,0l0,0l0,0l0,0l0,0l0,0l0,0l0,0h-0.1l0,0l0,0l0,0l0,0l0,0l0,0l0,0l0,0l0,0h-0.1l0,0l0,0l0,0h-0.1l0,0h-0.1l0,0l0,0l0,0
		l0,0l0,0h-0.1l0,0l0,0l0,0l0,0l0,0l0,0l0,0l0,0l0,0l0,0l0,0l0,0l0,0l0,0l0,0l0,0l0,0l0,0l0,0l0,0l0,0l0,0l0,0l0,0l0,0l0,0l0,0l0,0
		l0,0l0,0l0,0l0,0l0,0l0,0l0,0l0,0l0,0l0,0l0,0l0,0l0,0l0,0l0,0l0,0l0,0l0,0l0,0l0,0l0,0l0,0l0,0l0,0l0,0l0,0l0,0l0,0l0,0l0,0l0,0
		l0,0l0,0l0,0l0,0l0,0l0,0l0,0l0,0l0,0l0,0l0,0l0,0l0,0l0,0l0,0l0,0l0,0l0,0l0,0l0,0l0,0l0,0l0,0l0,0l0,0l0,0l0,0l0,0l0,0l0,0l0,0
		l0,0l0,0l0,0l0,0l0,0l0,0l0,0l0,0l0,0l0,0h0.1l0,0l0,0l0,0l0,0l0,0h0.1l0,0h0.1l0,0l0,0l0,0h0.1l0,0l0,0l0,0l0,0l0,0l0,0l0,0l0,0
		l0,0h0.1l0,0l0,0l0,0l0,0l0,0l0,0l0,0l0,0l0,0l0,0l0,0l0,0l0,0l0,0l0,0l0,0l0,0l0,0l0,0H203.9L203.9,356.2L203.9,356.2L203.9,356.2
		L203.9,356.2z"/>
</g>
</svg>
